#N canvas 396 446 309 113 10;
#X floatatom 106 6 5 0 0 0 - - -;
#X obj 201 43 select 5;
#X obj 201 69 print p5;
#X floatatom 266 72 3 0 0 0 - - -;
#X obj 11 42 < 5;
#X obj 38 42 <= 5;
#X obj 72 42 == 5;
#X obj 106 42 != 5;
#X obj 140 42 >= 5;
#X obj 174 42 > 5;
#X floatatom 11 71 3 0 0 0 - - -;
#X floatatom 38 71 3 0 0 0 - - -;
#X floatatom 72 71 3 0 0 0 - - -;
#X floatatom 106 71 3 0 0 0 - - -;
#X floatatom 140 72 3 0 0 0 - - -;
#X floatatom 174 72 3 0 0 0 - - -;
#X connect 0 0 4 0;
#X connect 0 0 5 0;
#X connect 0 0 6 0;
#X connect 0 0 7 0;
#X connect 0 0 8 0;
#X connect 0 0 9 0;
#X connect 0 0 1 0;
#X connect 1 0 2 0;
#X connect 1 1 3 0;
#X connect 4 0 10 0;
#X connect 5 0 11 0;
#X connect 6 0 12 0;
#X connect 7 0 13 0;
#X connect 8 0 14 0;
#X connect 9 0 15 0;
