#N canvas 531 22 577 450 10;
#X msg 248 70 A;
#X msg 184 127 B;
#X msg 260 126 C;
#X msg 340 120 D;
#X msg 311 203 E;
#X msg 374 206 F;
#X msg 364 292 G;
#X obj 156 374 print;
#X connect 0 0 1 0;
#X connect 0 0 2 0;
#X connect 0 0 3 0;
#X connect 0 0 7 0;
#X connect 1 0 7 0;
#X connect 2 0 7 0;
#X connect 3 0 4 0;
#X connect 3 0 5 0;
#X connect 3 0 7 0;
#X connect 4 0 7 0;
#X connect 5 0 6 0;
#X connect 5 0 7 0;
#X connect 6 0 7 0;
