#N canvas 817 523 182 123 10;
#X obj 42 75 print x1;
#X msg 42 43 Hello World!;
#X obj 42 13 bng 15 250 50 0 empty empty empty 0 -6 0 8 -262144 -1
-1;
#X msg 72 12 bang;
#X connect 1 0 0 0;
#X connect 2 0 1 0;
#X connect 3 0 1 0;
