#N canvas 90 39 562 326 10;
#X floatatom 103 91 5 0 0 0 - - -;
#X obj 80 170 route 0 1;
#X floatatom 23 213 5 0 0 0 - - -;
#X floatatom 109 215 5 0 0 0 - - -;
#X obj 80 135 pack;
#X text 116 106 in;
#X text 52 199 out0;
#X text 115 199 out1;
#X floatatom 20 83 1 0 1 3 selector - -;
#X text 15 134 comment;
#X floatatom 490 98 1 0 1 0 selector - -;
#X floatatom 322 212 5 0 0 0 - - -;
#X floatatom 280 70 5 0 0 0 - - -;
#X floatatom 359 71 5 0 0 0 - - -;
#X obj 359 154 spigot;
#X obj 282 156 spigot;
#X obj 398 133 tgl 15 0 empty empty empty 17 7 0 10 -262144 -1 -1 1
1;
#X obj 321 114 == 0;
#X obj 321 134 tgl 15 0 empty empty empty 17 7 0 10 -262144 -1 -1 0
1;
#X text 286 85 in0;
#X text 366 85 in1;
#X text 344 195 out;
#X text 62 26 DEMULTIPLEXER;
#X text 292 28 MULTIPLEXER;
#X connect 0 0 4 1;
#X connect 1 0 2 0;
#X connect 1 1 3 0;
#X connect 4 0 1 0;
#X connect 8 0 4 0;
#X connect 10 0 17 0;
#X connect 10 0 16 0;
#X connect 12 0 15 0;
#X connect 13 0 14 0;
#X connect 14 0 11 0;
#X connect 15 0 11 0;
#X connect 16 0 14 1;
#X connect 17 0 18 0;
#X connect 18 0 15 1;
