#N canvas 608 348 419 209 10;
#X obj 16 58 spigot 0;
#X obj 67 31 tgl 15 0 empty empty empty 0 -6 0 8 -262144 -1 -1 0 1
;
#X floatatom 16 32 5 0 0 0 - - -;
#X obj 16 88 print;
#X msg 246 10 54 10 1.5;
#X msg 255 31 95 start 512;
#X msg 263 52 36 4;
#X obj 246 97 route 54 95;
#X msg 273 73 95;
#X obj 221 127 print x1;
#X obj 282 127 print x2;
#X obj 343 127 print x3;
#X obj 20 153 moses 5;
#X floatatom 20 178 3 0 0 0 - - -;
#X floatatom 64 178 3 0 0 0 - - -;
#X floatatom 20 131 3 0 0 0 - - -;
#X floatatom 64 131 3 0 0 0 - - -;
#X text 91 152 moses - part a stream of numbers;
#X text 8 7 spigot is similar to a gate;
#X connect 0 0 3 0;
#X connect 1 0 0 1;
#X connect 2 0 0 0;
#X connect 4 0 7 0;
#X connect 5 0 7 0;
#X connect 6 0 7 0;
#X connect 7 0 9 0;
#X connect 7 1 10 0;
#X connect 7 2 11 0;
#X connect 8 0 7 0;
#X connect 12 0 13 0;
#X connect 12 1 14 0;
#X connect 15 0 12 0;
#X connect 16 0 12 1;
