#N canvas 667 287 290 143 10;
#X obj 20 14 hsl 128 15 0 127 0 0 empty empty empty -2 -6 0 8 -262144
-1 -1 0 1;
#X floatatom 17 40 5 0 0 0 - - -;
#X obj 17 64 send foo;
#X obj 185 15 receive foo;
#X floatatom 185 43 5 0 0 0 - - -;
#X obj 121 107 value foo2;
#X floatatom 121 82 5 0 0 0 - - -;
#X connect 0 0 1 0;
#X connect 1 0 2 0;
#X connect 3 0 4 0;
#X connect 6 0 5 0;
