#N canvas 651 207 181 142 10;
#X obj 31 18 hsl 128 15 0 127 0 0 empty empty empty -2 -6 0 8 -262144
-1 -1 1100 1;
#X floatatom 28 47 5 0 0 0 - - -;
#X floatatom 28 107 5 0 0 0 - - -;
#X floatatom 79 47 5 0 0 0 - - -;
#N canvas 617 460 462 312 mysub 1;
#X obj 28 15 inlet;
#X obj 98 15 inlet;
#X obj 28 101 outlet;
#X obj 28 44 * 5;
#X obj 28 72 + 3;
#X connect 0 0 3 0;
#X connect 1 0 4 1;
#X connect 3 0 4 0;
#X connect 4 0 2 0;
#X restore 28 75 pd mysub;
#X connect 0 0 1 0;
#X connect 1 0 4 0;
#X connect 3 0 4 1;
#X connect 4 0 2 0;
