#N canvas 638 225 350 141 10;
#X obj 22 43 metro 500;
#X obj 117 44 timer;
#X obj 117 17 bng 15 250 50 0 empty empty empty 0 -6 0 8 -262144 -1
-1;
#X obj 147 17 bng 15 250 50 0 empty empty empty 0 -6 0 8 -262144 -1
-1;
#X floatatom 117 75 5 0 0 0 - - -;
#X obj 197 45 line;
#X obj 22 71 bng 15 250 50 0 empty empty empty 0 -6 0 8 -262144 -1
-1;
#X obj 22 17 tgl 15 0 empty empty empty 0 -6 0 8 -262144 -1 -1 0 1
;
#X floatatom 197 74 5 0 0 0 - - -;
#X msg 197 16 150 \, 50 2000;
#X connect 0 0 6 0;
#X connect 1 0 4 0;
#X connect 2 0 1 0;
#X connect 3 0 1 1;
#X connect 5 0 8 0;
#X connect 7 0 0 0;
#X connect 9 0 5 0;
